<?xml version="1.0" encoding="utf-8"?>
<!-- Generator: Adobe Illustrator 17.0.0, SVG Export Plug-In . SVG Version: 6.00 Build 0)  -->
<!DOCTYPE svg PUBLIC "-//W3C//DTD SVG 1.1//EN" "http://www.w3.org/Graphics/SVG/1.1/DTD/svg11.dtd">
<svg version="1.1" id="layout_x5F_1" xmlns="http://www.w3.org/2000/svg" xmlns:xlink="http://www.w3.org/1999/xlink" x="0px"
	 y="0px" width="162.585px" height="249.742px" viewBox="0 0 162.585 249.742" enable-background="new 0 0 162.585 249.742"
	 xml:space="preserve">
<g>
	<g>
		<polygon fill="#054E91" points="153.835,27.667 159.335,147.742 152.805,247.485 135,247.485 129.983,80.298 142.045,41.667 		"/>
		<polygon fill="#054E91" points="5.365,28.667 0,149.333 6.365,248.485 24.17,248.485 28.188,151.992 28.188,81.298 21.167,41.5 		
			"/>
		<polygon fill="#C9CACA" points="145.167,21.764 94.985,5.319 78.511,19 64,4.333 10.996,23 4.853,28.667 21.829,57.293 
			27.072,81.027 31.381,178.333 30.943,222.667 131.372,222.667 128.552,178.333 132.861,81.027 138.104,57.293 153.835,27.667 		
			"/>
		<rect x="30.628" y="222.667" fill="#054E91" width="100.744" height="15.834"/>
		<polygon fill="#054E91" points="61,0 55.566,7.339 75.25,15.667 74,10.833 		"/>
		<circle fill="#40220F" cx="78.946" cy="35.5" r="3.25"/>
		<circle fill="#40220F" cx="78.946" cy="75.938" r="3.25"/>
		<circle fill="#40220F" cx="78.946" cy="116.375" r="3.25"/>
		<circle fill="#40220F" cx="78.946" cy="156.812" r="3.25"/>
		<circle fill="#40220F" cx="78.946" cy="197.25" r="3.25"/>
		<polyline fill="none" stroke="#9FA0A0" stroke-miterlimit="10" points="75.25,15.667 84,22.5 82.196,238.501 		"/>
		<polygon fill="#054E91" points="98.498,1.55 103.932,8.89 82.196,16.5 83.446,11.667 		"/>
		<g>
			<path fill="#F7F8F8" d="M112.793,77.486c0,2.099-1.702,3.801-3.801,3.801l0,0c-2.099,0-3.801-1.702-3.801-3.801l0,0
				c0-2.099,1.702-3.801,3.801-3.801l0,0C111.092,73.685,112.793,75.387,112.793,77.486L112.793,77.486z"/>
			<path fill="#F7F8F8" d="M112.793,44.632c0,2.099-1.702,3.801-3.801,3.801l0,0c-2.099,0-3.801-1.702-3.801-3.801l0,0
				c0-2.099,1.702-3.801,3.801-3.801l0,0C111.092,40.831,112.793,42.533,112.793,44.632L112.793,44.632z"/>
			<g>
				<path fill="#F7F8F8" d="M103.796,61.887c0,2.099-1.702,3.801-3.801,3.801l0,0c-2.099,0-3.801-1.702-3.801-3.801l0,0
					c0-2.099,1.702-3.801,3.801-3.801l0,0C102.094,58.085,103.796,59.787,103.796,61.887L103.796,61.887z"/>
				<path fill="#F7F8F8" d="M112.793,61.942c0,2.099-1.702,3.801-3.801,3.801l0,0c-2.099,0-3.801-1.702-3.801-3.801l0,0
					c0-2.099,1.702-3.801,3.801-3.801l0,0C111.092,58.14,112.793,59.842,112.793,61.942L112.793,61.942z"/>
				<path fill="#F7F8F8" d="M121.791,61.942c0,2.099-1.702,3.801-3.801,3.801l0,0c-2.099,0-3.801-1.702-3.801-3.801l0,0
					c0-2.099,1.702-3.801,3.801-3.801l0,0C120.089,58.14,121.791,59.842,121.791,61.942L121.791,61.942z"/>
			</g>
			<g>
				<path fill="#F7F8F8" d="M99.478,70.372c0,2.099-1.702,3.801-3.801,3.801l0,0c-2.099,0-3.801-1.702-3.801-3.801l0,0
					c0-2.099,1.702-3.801,3.801-3.801l0,0C97.776,66.57,99.478,68.272,99.478,70.372L99.478,70.372z"/>
				<path fill="#F7F8F8" d="M126.109,69.706c0,2.099-1.702,3.801-3.801,3.801l0,0c-2.099,0-3.801-1.702-3.801-3.801l0,0
					c0-2.099,1.702-3.801,3.801-3.801l0,0C124.407,65.905,126.109,67.607,126.109,69.706L126.109,69.706z"/>
				<path fill="#F7F8F8" d="M108.355,69.706c0,2.099-1.702,3.801-3.801,3.801l0,0c-2.099,0-3.801-1.702-3.801-3.801l0,0
					c0-2.099,1.702-3.801,3.801-3.801l0,0C106.653,65.905,108.355,67.607,108.355,69.706L108.355,69.706z"/>
				<path fill="#F7F8F8" d="M117.232,69.706c0,2.099-1.702,3.801-3.801,3.801l0,0c-2.099,0-3.801-1.702-3.801-3.801l0,0
					c0-2.099,1.702-3.801,3.801-3.801l0,0C115.53,65.905,117.232,67.607,117.232,69.706L117.232,69.706z"/>
			</g>
			<g>
				<path fill="#F7F8F8" d="M98.894,53.649c0,2.099-1.702,3.801-3.801,3.801l0,0c-2.099,0-3.801-1.702-3.801-3.801l0,0
					c0-2.099,1.702-3.801,3.801-3.801l0,0C97.192,49.848,98.894,51.55,98.894,53.649L98.894,53.649z"/>
				<path fill="#F7F8F8" d="M108.16,53.649c0,2.099-1.702,3.801-3.801,3.801l0,0c-2.099,0-3.801-1.702-3.801-3.801l0,0
					c0-2.099,1.702-3.801,3.801-3.801l0,0C106.458,49.848,108.16,51.55,108.16,53.649L108.16,53.649z"/>
				<path fill="#F7F8F8" d="M117.427,53.649c0,2.099-1.702,3.801-3.801,3.801l0,0c-2.099,0-3.801-1.702-3.801-3.801l0,0
					c0-2.099,1.702-3.801,3.801-3.801l0,0C115.725,49.848,117.427,51.55,117.427,53.649L117.427,53.649z"/>
				<path fill="#F7F8F8" d="M126.693,53.649c0,2.099-1.702,3.801-3.801,3.801l0,0c-2.099,0-3.801-1.702-3.801-3.801l0,0
					c0-2.099,1.702-3.801,3.801-3.801l0,0C124.991,49.848,126.693,51.55,126.693,53.649L126.693,53.649z"/>
			</g>
		</g>
		<rect x="5.587" y="235.995" fill="#FFE200" width="19.413" height="6.005"/>
		<rect x="134.37" y="232.992" fill="#FFE200" width="19.413" height="6.005"/>
		<rect x="82.258" y="227.581" fill="#FFE200" width="48.637" height="6.005"/>
		<rect x="30.628" y="227.581" fill="#FFE200" width="51.63" height="6.005"/>
	</g>
	<circle fill="#40220F" cx="79.085" cy="229.333" r="3.25"/>
</g>
</svg>
