<?xml version="1.0" encoding="utf-8"?>
<!-- Generator: Adobe Illustrator 17.0.0, SVG Export Plug-In . SVG Version: 6.00 Build 0)  -->
<!DOCTYPE svg PUBLIC "-//W3C//DTD SVG 1.1//EN" "http://www.w3.org/Graphics/SVG/1.1/DTD/svg11.dtd">
<svg version="1.1" id="layout1" xmlns="http://www.w3.org/2000/svg" xmlns:xlink="http://www.w3.org/1999/xlink" x="0px" y="0px"
	 width="2000px" height="1000px" viewBox="0 0 2000 1000" enable-background="new 0 0 2000 1000" xml:space="preserve">
<g>
	<rect y="-8.301" fill="#F2B636" width="2000" height="723.083"/>
	<rect y="645.075" fill="#C79126" width="2000" height="354.925"/>
</g>
<polygon fill="#898989" points="1168.837,494.573 1168.837,504.567 697.17,504.249 697.17,494.573 684.17,494.573 684.17,504.24 
	684.17,516.907 684.17,723.083 697.17,723.083 697.17,516.915 1168.837,517.234 1168.837,723.083 1181.837,723.083 
	1181.837,494.573 "/>
<rect x="662.279" y="474.571" fill="#F3E8D1" width="542.973" height="20.002"/>
<g>
	<g>
		<path fill="#EEDBAC" d="M905.759,459.097c0,3.357-2.88,6.079-6.432,6.079h-97.01c-3.552,0-6.432-2.721-6.432-6.079v-52.934
			c0-3.357,2.88-6.079,6.432-6.079h97.01c3.552,0,6.432,2.721,6.432,6.079V459.097z"/>
		<path fill="#E8D09C" d="M831.503,465.176c0,0,7.589-20.477,25.256-36.229c19.753-17.612,49-22.368,49-22.368v58.597
			L831.503,465.176L831.503,465.176z"/>
		<path fill="#745E25" d="M899.328,467.066h-97.01c-4.649,0-8.432-3.575-8.432-7.969v-52.934c0-4.394,3.782-7.969,8.432-7.969h97.01
			c4.649,0,8.432,3.575,8.432,7.969v52.934C907.759,463.491,903.977,467.066,899.328,467.066z M802.318,401.975
			c-2.444,0-4.432,1.879-4.432,4.188v52.934c0,2.31,1.988,4.188,4.432,4.188h97.01c2.444,0,4.432-1.879,4.432-4.188v-52.934
			c0-2.31-1.988-4.188-4.432-4.188H802.318z"/>
	</g>
	<g>
		<path fill="#A3791F" d="M787.087,465.176h130c0,0-0.667,5.343-2.333,6.472c-1.667,1.129-4,2.259-4,2.259h-117.75l-2.917-3.482
			L787.087,465.176z"/>
		<path fill="#8C631C" d="M911.837,470.407c-2.167,1.5-15.5,1.5-15.5,1.5h-87.5c0,0-13.333,0-15.5-1.5s-5.25-2.5-5.25-2.5
			l2.333,3.741l4,2.259h2.417h111.5h2.417l4-2.259l2.333-3.741C917.087,467.907,914.003,468.907,911.837,470.407z"/>
	</g>
</g>
</svg>
