<?xml version="1.0" encoding="utf-8"?>
<!-- Generator: Adobe Illustrator 17.0.0, SVG Export Plug-In . SVG Version: 6.00 Build 0)  -->
<!DOCTYPE svg PUBLIC "-//W3C//DTD SVG 1.1//EN" "http://www.w3.org/Graphics/SVG/1.1/DTD/svg11.dtd">
<svg version="1.1" id="图层_1" xmlns="http://www.w3.org/2000/svg" xmlns:xlink="http://www.w3.org/1999/xlink" x="0px" y="0px"
	 width="271px" height="169px" viewBox="0 0 271 169" enable-background="new 0 0 271 169" xml:space="preserve">
<g>
	<g>
		<rect x="0" y="0" fill="#EEDBAC" width="271" height="169"/>
		<g>
			
				<rect x="11.606" y="9" fill="none" stroke="#745E25" stroke-width="2" stroke-miterlimit="10" width="250.487" height="149.993"/>
			<line fill="none" stroke="#745E25" stroke-miterlimit="10" x1="62.833" y1="9" x2="62.833" y2="116"/>
			<line fill="none" stroke="#745E25" stroke-miterlimit="10" x1="110.833" y1="9" x2="110.833" y2="116"/>
			<line fill="none" stroke="#745E25" stroke-miterlimit="10" x1="158.833" y1="9" x2="158.833" y2="116"/>
			<line fill="none" stroke="#745E25" stroke-miterlimit="10" x1="206.833" y1="9" x2="206.833" y2="116"/>
			<line fill="none" stroke="#745E25" stroke-miterlimit="10" x1="11.606" y1="116" x2="262.094" y2="116"/>
			<line fill="none" stroke="#745E25" stroke-miterlimit="10" x1="158.833" y1="62.5" x2="206.833" y2="62.5"/>
			<line fill="none" stroke="#745E25" stroke-miterlimit="10" x1="62.833" y1="62.5" x2="110.833" y2="62.5"/>
			<line fill="none" stroke="#745E25" stroke-miterlimit="10" x1="135.5" y1="116" x2="135.5" y2="158.993"/>
		</g>
	</g>
	<g>
		<g>
			<polygon fill="#B27E2B" points="242.522,46.484 233.717,46.089 215.627,47.327 214.263,27.398 240.815,25.581 			"/>
			
				<rect x="214.914" y="26.466" transform="matrix(0.9977 -0.0683 0.0683 0.9977 -1.9564 15.6674)" fill="#FFF276" width="26.614" height="19.976"/>
		</g>
		<g>
			
				<rect x="223.473" y="22.71" transform="matrix(0.0835 0.9965 -0.9965 0.0835 235.8211 -196.015)" fill="#745E25" width="2" height="14.969"/>
		</g>
		<g>
			
				<rect x="229.835" y="25.162" transform="matrix(0.0742 0.9972 -0.9972 0.0742 248.1464 -197.2926)" fill="#745E25" width="1" height="19.687"/>
		</g>
		<g>
			
				<rect x="228.325" y="25.852" transform="matrix(0.0664 0.9978 -0.9978 0.0664 250.7544 -193.588)" fill="#745E25" width="1" height="22.701"/>
		</g>
		<g>
			
				<rect x="228.323" y="27.955" transform="matrix(0.0664 0.9978 -0.9978 0.0664 252.8507 -191.6224)" fill="#745E25" width="1" height="22.702"/>
		</g>
	</g>
	<g>
		<g>
			<polygon fill="#B27E2B" points="247.753,74.365 239.041,73.026 220.924,72.315 221.707,52.355 248.301,53.399 			"/>
			
				<rect x="221.305" y="52.869" transform="matrix(0.9992 0.0392 -0.0392 0.9992 2.646 -9.154)" fill="#FFF276" width="26.614" height="19.976"/>
		</g>
		<g>
			
				<rect x="230.557" y="48.747" transform="matrix(-0.024 0.9997 -0.9997 -0.024 293.3244 -173.9106)" fill="#745E25" width="2" height="14.969"/>
		</g>
		<g>
			
				<rect x="236.369" y="51.801" transform="matrix(-0.0333 0.9994 -0.9994 -0.0333 306.3574 -173.0439)" fill="#745E25" width="1" height="19.687"/>
		</g>
		<g>
			
				<rect x="234.632" y="52.316" transform="matrix(-0.0411 0.9992 -0.9992 -0.0411 308.4122 -168.6498)" fill="#745E25" width="1" height="22.701"/>
		</g>
		<g>
			
				<rect x="234.404" y="54.406" transform="matrix(-0.0411 0.9992 -0.9992 -0.0411 310.2638 -166.2455)" fill="#745E25" width="1" height="22.702"/>
		</g>
	</g>
	<g>
		<g>
			<polygon fill="#B27E2B" points="192.753,44.78 184.041,43.442 165.923,42.73 166.707,22.77 193.3,23.814 			"/>
			
				<rect x="166.305" y="23.284" transform="matrix(0.9992 0.0392 -0.0392 0.9992 1.4433 -7.0195)" fill="#FFF276" width="26.614" height="19.976"/>
		</g>
		<g>
			
				<rect x="175.557" y="19.162" transform="matrix(-0.024 0.9997 -0.9997 -0.024 207.4291 -149.2201)" fill="#745E25" width="2" height="14.969"/>
		</g>
		<g>
			
				<rect x="181.369" y="22.216" transform="matrix(-0.0333 0.9994 -0.9994 -0.0333 219.9594 -148.6427)" fill="#745E25" width="1" height="19.687"/>
		</g>
		<g>
			
				<rect x="179.632" y="22.731" transform="matrix(-0.0411 0.9992 -0.9992 -0.0411 221.5908 -144.4971)" fill="#745E25" width="1" height="22.701"/>
		</g>
		<g>
			
				<rect x="179.404" y="24.821" transform="matrix(-0.0411 0.9992 -0.9992 -0.0411 223.4423 -142.0928)" fill="#745E25" width="1" height="22.702"/>
		</g>
	</g>
	<g>
		<g>
			<polygon fill="#B27E2B" points="152.185,78.242 143.473,76.903 125.355,76.192 126.139,56.232 152.732,57.276 			"/>
			
				<rect x="125.737" y="56.746" transform="matrix(0.9992 0.0392 -0.0392 0.9992 2.7246 -5.4025)" fill="#FFF276" width="26.614" height="19.976"/>
		</g>
		<g>
			
				<rect x="134.989" y="52.624" transform="matrix(-0.024 0.9997 -0.9997 -0.024 199.3407 -74.3996)" fill="#745E25" width="2" height="14.969"/>
		</g>
		<g>
			
				<rect x="140.801" y="55.678" transform="matrix(-0.0333 0.9994 -0.9994 -0.0333 211.4854 -73.5223)" fill="#745E25" width="1" height="19.687"/>
		</g>
		<g>
			
				<rect x="139.064" y="56.193" transform="matrix(-0.0411 0.9992 -0.9992 -0.0411 212.7883 -69.1257)" fill="#745E25" width="1" height="22.701"/>
		</g>
		<g>
			
				<rect x="138.836" y="58.283" transform="matrix(-0.0411 0.9992 -0.9992 -0.0411 214.6399 -66.7214)" fill="#745E25" width="1" height="22.702"/>
		</g>
	</g>
	<g>
		<g>
			<polygon fill="#B27E2B" points="193.273,91.644 184.561,90.306 166.444,89.594 167.227,69.634 193.821,70.678 			"/>
			
				<rect x="166.825" y="70.148" transform="matrix(0.9992 0.0392 -0.0392 0.9992 3.2819 -7.0038)" fill="#FFF276" width="26.614" height="19.976"/>
		</g>
		<g>
			
				<rect x="176.077" y="66.026" transform="matrix(-0.024 0.9997 -0.9997 -0.024 254.8123 -101.7528)" fill="#745E25" width="2" height="14.969"/>
		</g>
		<g>
			
				<rect x="181.889" y="69.08" transform="matrix(-0.0333 0.9994 -0.9994 -0.0333 267.335 -100.7402)" fill="#745E25" width="1" height="19.687"/>
		</g>
		<g>
			
				<rect x="180.152" y="69.595" transform="matrix(-0.0411 0.9992 -0.9992 -0.0411 268.9568 -96.2263)" fill="#745E25" width="1" height="22.701"/>
		</g>
		<g>
			
				<rect x="179.924" y="71.685" transform="matrix(-0.0411 0.9992 -0.9992 -0.0411 270.8083 -93.8219)" fill="#745E25" width="1" height="22.702"/>
		</g>
	</g>
	<g>
		<g>
			<polygon fill="#B27E2B" points="143.586,62.695 134.874,61.357 116.756,60.646 117.54,40.685 144.133,41.729 			"/>
			
				<rect x="117.138" y="41.199" transform="matrix(0.9992 0.0392 -0.0392 0.9992 2.1081 -5.0772)" fill="#FFF276" width="26.614" height="19.976"/>
		</g>
		<g>
			
				<rect x="126.39" y="37.078" transform="matrix(-0.024 0.9997 -0.9997 -0.024 174.9932 -81.7226)" fill="#745E25" width="2" height="14.969"/>
		</g>
		<g>
			
				<rect x="132.202" y="40.131" transform="matrix(-0.0333 0.9994 -0.9994 -0.0333 187.0623 -80.9919)" fill="#745E25" width="1" height="19.687"/>
		</g>
		<g>
			
				<rect x="130.465" y="40.646" transform="matrix(-0.0411 0.9992 -0.9992 -0.0411 188.3022 -76.72)" fill="#745E25" width="1" height="22.701"/>
		</g>
		<g>
			
				<rect x="130.237" y="42.736" transform="matrix(-0.0411 0.9992 -0.9992 -0.0411 190.1537 -74.3156)" fill="#745E25" width="1" height="22.702"/>
		</g>
	</g>
	<g>
		<g>
			<polygon fill="#B27E2B" points="100.639,47.559 91.927,46.221 73.809,45.509 74.593,25.549 101.186,26.593 			"/>
			
				<rect x="74.191" y="26.063" transform="matrix(0.9992 0.0392 -0.0392 0.9992 1.4814 -3.4042)" fill="#FFF276" width="26.614" height="19.976"/>
		</g>
		<g>
			
				<rect x="83.443" y="21.941" transform="matrix(-0.024 0.9997 -0.9997 -0.024 115.8847 -54.2868)" fill="#745E25" width="2" height="14.969"/>
		</g>
		<g>
			
				<rect x="89.255" y="24.995" transform="matrix(-0.0333 0.9994 -0.9994 -0.0333 127.559 -53.7081)" fill="#745E25" width="1" height="19.687"/>
		</g>
		<g>
			
				<rect x="87.518" y="25.51" transform="matrix(-0.0411 0.9992 -0.9992 -0.0411 128.4659 -49.5676)" fill="#745E25" width="1" height="22.701"/>
		</g>
		<g>
			
				<rect x="87.29" y="27.6" transform="matrix(-0.0411 0.9992 -0.9992 -0.0411 130.3175 -47.1632)" fill="#745E25" width="1" height="22.702"/>
		</g>
	</g>
	<g>
		<g>
			<polygon fill="#B27E2B" points="107.538,101.046 98.827,99.708 80.709,98.997 81.493,79.036 108.086,80.08 			"/>
			
				<rect x="81.091" y="79.55" transform="matrix(0.9992 0.0392 -0.0392 0.9992 3.5847 -3.6337)" fill="#FFF276" width="26.614" height="19.976"/>
		</g>
		<g>
			
				<rect x="90.342" y="75.429" transform="matrix(-0.024 0.9997 -0.9997 -0.024 176.4218 -6.4153)" fill="#745E25" width="2" height="14.969"/>
		</g>
		<g>
			
				<rect x="96.155" y="78.482" transform="matrix(-0.0333 0.9994 -0.9994 -0.0333 188.146 -5.3382)" fill="#745E25" width="1" height="19.687"/>
		</g>
		<g>
			
				<rect x="94.418" y="78.997" transform="matrix(-0.0411 0.9992 -0.9992 -0.0411 189.0915 -0.7755)" fill="#745E25" width="1" height="22.701"/>
		</g>
		<g>
			
				<rect x="94.19" y="81.087" transform="matrix(-0.0411 0.9992 -0.9992 -0.0411 190.943 1.6288)" fill="#745E25" width="1" height="22.702"/>
		</g>
	</g>
	<g>
		<g>
			<polygon fill="#B27E2B" points="44.781,46.011 36.069,44.672 17.951,43.961 18.735,24.001 45.329,25.045 			"/>
			
				<rect x="18.333" y="24.515" transform="matrix(0.9992 0.0392 -0.0392 0.9992 1.3777 -1.2145)" fill="#FFF276" width="26.614" height="19.976"/>
		</g>
		<g>
			
				<rect x="27.585" y="20.393" transform="matrix(-0.024 0.9997 -0.9997 -0.024 57.1401 -0.0306)" fill="#745E25" width="2" height="14.969"/>
		</g>
		<g>
			
				<rect x="33.397" y="23.447" transform="matrix(-0.0333 0.9994 -0.9994 -0.0333 68.2963 0.5189)" fill="#745E25" width="1" height="19.687"/>
		</g>
		<g>
			
				<rect x="31.66" y="23.962" transform="matrix(-0.0411 0.9992 -0.9992 -0.0411 68.7649 4.6309)" fill="#745E25" width="1" height="22.701"/>
		</g>
		<g>
			
				<rect x="31.432" y="26.052" transform="matrix(-0.0411 0.9992 -0.9992 -0.0411 70.6164 7.0352)" fill="#745E25" width="1" height="22.702"/>
		</g>
	</g>
	<g>
		<g>
			<polygon fill="#B27E2B" points="55.323,63.36 46.612,62.021 28.494,61.31 29.278,41.35 55.871,42.394 			"/>
			
				<rect x="28.876" y="41.864" transform="matrix(0.9992 0.0392 -0.0392 0.9992 2.0663 -1.6147)" fill="#FFF276" width="26.614" height="19.976"/>
		</g>
		<g>
			
				<rect x="38.127" y="37.742" transform="matrix(-0.024 0.9997 -0.9997 -0.024 85.2795 7.1949)" fill="#745E25" width="2" height="14.969"/>
		</g>
		<g>
			
				<rect x="43.94" y="40.796" transform="matrix(-0.0333 0.9994 -0.9994 -0.0333 96.529 7.9083)" fill="#745E25" width="1" height="19.687"/>
		</g>
		<g>
			
				<rect x="42.203" y="41.311" transform="matrix(-0.0411 0.9992 -0.9992 -0.0411 97.0753 12.1596)" fill="#745E25" width="1" height="22.701"/>
		</g>
		<g>
			
				<rect x="41.975" y="43.401" transform="matrix(-0.0411 0.9992 -0.9992 -0.0411 98.9268 14.564)" fill="#745E25" width="1" height="22.702"/>
		</g>
	</g>
	<g>
		<g>
			<polygon fill="#B27E2B" points="71.269,151.331 62.557,149.993 44.44,149.282 45.223,129.321 71.817,130.365 			"/>
			
				<rect x="44.821" y="129.835" transform="matrix(0.9992 0.0392 -0.0392 0.9992 5.5291 -2.1724)" fill="#FFF276" width="26.614" height="19.976"/>
		</g>
		<g>
			
				<rect x="54.073" y="125.714" transform="matrix(-0.024 0.9997 -0.9997 -0.024 189.5536 81.3342)" fill="#745E25" width="2" height="14.969"/>
		</g>
		<g>
			
				<rect x="59.886" y="128.767" transform="matrix(-0.0333 0.9994 -0.9994 -0.0333 200.9278 82.8685)" fill="#745E25" width="1" height="19.687"/>
		</g>
		<g>
			
				<rect x="58.148" y="129.282" transform="matrix(-0.0411 0.9992 -0.9992 -0.0411 201.5736 87.8156)" fill="#745E25" width="1" height="22.701"/>
		</g>
		<g>
			
				<rect x="57.921" y="131.372" transform="matrix(-0.0411 0.9992 -0.9992 -0.0411 203.4252 90.22)" fill="#745E25" width="1" height="22.702"/>
		</g>
	</g>
	<g>
		<g>
			<polygon fill="#B27E2B" points="187.578,148.79 178.866,147.452 160.748,146.741 161.532,126.78 188.125,127.824 			"/>
			
				<rect x="161.13" y="127.294" transform="matrix(0.9992 0.0392 -0.0392 0.9992 5.519 -6.7364)" fill="#FFF276" width="26.614" height="19.976"/>
		</g>
		<g>
			
				<rect x="170.382" y="123.173" transform="matrix(-0.024 0.9997 -0.9997 -0.024 306.11 -37.5427)" fill="#745E25" width="2" height="14.969"/>
		</g>
		<g>
			
				<rect x="176.194" y="126.226" transform="matrix(-0.0333 0.9994 -0.9994 -0.0333 318.5646 -36.0011)" fill="#745E25" width="1" height="19.687"/>
		</g>
		<g>
			
				<rect x="174.457" y="126.741" transform="matrix(-0.0411 0.9992 -0.9992 -0.0411 320.1249 -31.0399)" fill="#745E25" width="1" height="22.701"/>
		</g>
		<g>
			
				<rect x="174.229" y="128.831" transform="matrix(-0.0411 0.9992 -0.9992 -0.0411 321.9764 -28.6356)" fill="#745E25" width="1" height="22.702"/>
		</g>
	</g>
	<g>
		<g>
			<polygon fill="#B27E2B" points="212.92,144.203 204.208,142.865 186.091,142.154 186.874,122.193 213.468,123.237 			"/>
			
				<rect x="186.472" y="122.708" transform="matrix(0.9992 0.0392 -0.0392 0.9992 5.3586 -7.734)" fill="#FFF276" width="26.614" height="19.976"/>
		</g>
		<g>
			
				<rect x="195.724" y="118.586" transform="matrix(-0.024 0.9997 -0.9997 -0.024 327.4746 -67.5748)" fill="#745E25" width="2" height="14.969"/>
		</g>
		<g>
			
				<rect x="201.536" y="121.639" transform="matrix(-0.0333 0.9994 -0.9994 -0.0333 340.1657 -66.069)" fill="#745E25" width="1" height="19.687"/>
		</g>
		<g>
			
				<rect x="199.799" y="122.154" transform="matrix(-0.0411 0.9992 -0.9992 -0.0411 341.9265 -61.1365)" fill="#745E25" width="1" height="22.701"/>
		</g>
		<g>
			
				<rect x="199.571" y="124.244" transform="matrix(-0.0411 0.9992 -0.9992 -0.0411 343.778 -58.7321)" fill="#745E25" width="1" height="22.702"/>
		</g>
	</g>
	<g>
		<g>
			<polygon fill="#B27E2B" points="44.762,80.639 36.05,79.301 17.933,78.589 18.716,58.629 45.31,59.673 			"/>
			
				<rect x="18.314" y="59.143" transform="matrix(0.9992 0.0392 -0.0392 0.9992 2.7359 -1.1871)" fill="#FFF276" width="26.614" height="19.976"/>
		</g>
		<g>
			
				<rect x="27.566" y="55.021" transform="matrix(-0.024 0.9997 -0.9997 -0.024 91.739 35.4467)" fill="#745E25" width="2" height="14.969"/>
		</g>
		<g>
			
				<rect x="33.378" y="58.075" transform="matrix(-0.0333 0.9994 -0.9994 -0.0333 102.8858 36.3177)" fill="#745E25" width="1" height="19.687"/>
		</g>
		<g>
			
				<rect x="31.641" y="58.59" transform="matrix(-0.0411 0.9992 -0.9992 -0.0411 103.3441 40.7017)" fill="#745E25" width="1" height="22.701"/>
		</g>
		<g>
			
				<rect x="31.413" y="60.68" transform="matrix(-0.0411 0.9992 -0.9992 -0.0411 105.1956 43.1061)" fill="#745E25" width="1" height="22.702"/>
		</g>
	</g>
</g>
</svg>
