<?xml version="1.0" encoding="utf-8"?>
<!-- Generator: Adobe Illustrator 17.0.0, SVG Export Plug-In . SVG Version: 6.00 Build 0)  -->
<!DOCTYPE svg PUBLIC "-//W3C//DTD SVG 1.1//EN" "http://www.w3.org/Graphics/SVG/1.1/DTD/svg11.dtd">
<svg version="1.1" id="Scene_1" image-rendering="auto"
	 xmlns="http://www.w3.org/2000/svg" xmlns:xlink="http://www.w3.org/1999/xlink" x="0px" y="0px" width="122px" height="52px"
	 viewBox="0 0 122 52" enable-background="new 0 0 122 52" xml:space="preserve">


<g display="none">
	<g id="Scene_1_x5F_1.44" transform="" display="inline">
		<path fill="none" stroke="#F4E9D0" stroke-linecap="round" stroke-linejoin="round" d="M41.6,28.7c4.833,1.5,9,3.983,12.5,7.45
			c2.733,2.5,5.233,6.4,7.5,11.7c-2.267-5.3-4.767-9.2-7.5-11.7C50.6,32.683,46.433,30.2,41.6,28.7
			c-2.233-1.4-6.367-2.417-12.4-3.05c-5.067-0.533-8.767-1.2-11.1-2c2.333,0.8,6.033,1.467,11.1,2
			C35.233,26.283,39.367,27.3,41.6,28.7"/>
	</g>

		<animate  fill="remove" dur="3.208s" restart="always" attributeName="display" calcMode="linear" additive="replace" accumulate="none" values="none;inline;none;none" keyTimes="0;0.571;0.584;1" repeatCount="indefinite">
		</animate>
</g>
<g display="none">
	<g id="Scene_1_x5F_1.43" transform="" display="inline">
		<path fill="none" stroke="#F4E9D0" stroke-linecap="round" stroke-linejoin="round" d="M43.4,27.85c4.467,1.9,8.233,4.567,11.3,8
			c2.367,2.433,4.583,6.35,6.65,11.75c-2.067-5.4-4.283-9.317-6.65-11.75C51.633,32.417,47.867,29.75,43.4,27.85
			c-2.2-1.7-6.233-3.083-12.1-4.15c-4.967-0.967-8.65-1.867-11.05-2.7c2.4,0.833,6.083,1.733,11.05,2.7
			C37.167,24.767,41.2,26.15,43.4,27.85"/>
	</g>

		<animate  fill="remove" dur="3.208s" restart="always" attributeName="display" calcMode="linear" additive="replace" accumulate="none" values="none;inline;none;none" keyTimes="0;0.559;0.571;1" repeatCount="indefinite">
		</animate>
</g>
<g display="none">
	<g id="Scene_1_x5F_1.42" transform="" display="inline">
		<path fill="none" stroke="#F4E9D0" stroke-linecap="round" stroke-linejoin="round" d="M45.25,27.05c4.067,2.233,7.4,5.05,10,8.45
			c2.033,2.367,3.983,6.3,5.85,11.8c-1.867-5.5-3.817-9.433-5.85-11.8C52.65,32.1,49.317,29.283,45.25,27.05
			c-2.2-2-6.15-3.783-11.85-5.35c-4.833-1.367-8.517-2.483-11.05-3.35c2.533,0.867,6.217,1.983,11.05,3.35
			C39.1,23.267,43.05,25.05,45.25,27.05"/>
	</g>

		<animate  fill="remove" dur="3.208s" restart="always" attributeName="display" calcMode="linear" additive="replace" accumulate="none" values="none;inline;none;none" keyTimes="0;0.546;0.559;1" repeatCount="indefinite">
		</animate>
</g>
<g display="none">
	<g id="Scene_1_x5F_1.41" transform="" display="inline">
		<path fill="none" stroke="#F4E9D0" stroke-linecap="round" stroke-linejoin="round" d="M47.1,26.2c3.667,2.633,6.583,5.633,8.75,9
			c1.667,2.3,3.333,6.233,5,11.8c-1.667-5.567-3.333-9.5-5-11.8C53.683,31.833,50.767,28.833,47.1,26.2
			c-2.2-2.3-6.067-4.467-11.6-6.5c-4.7-1.767-8.367-3.1-11-4c2.633,0.9,6.3,2.233,11,4C41.033,21.733,44.9,23.9,47.1,26.2"/>
	</g>

		<animate  fill="remove" dur="3.208s" restart="always" attributeName="display" calcMode="linear" additive="replace" accumulate="none" values="none;inline;none;none" keyTimes="0;0.532;0.546;1" repeatCount="indefinite">
		</animate>
</g>
<g display="none">
	<g id="Scene_1_x5F_1.40" transform="" display="inline">
		<path fill="none" stroke="#F4E9D0" stroke-linecap="round" stroke-linejoin="round" d="M48.95,25.4
			c3.233,2.967,5.733,6.133,7.5,9.5c1.267,2.233,2.667,6.167,4.2,11.8c-1.533-5.633-2.933-9.567-4.2-11.8
			C54.683,31.533,52.183,28.367,48.95,25.4c-2.167-2.6-5.933-5.167-11.3-7.7c-4.6-2.167-8.283-3.717-11.05-4.65
			c2.767,0.933,6.45,2.483,11.05,4.65C43.017,20.233,46.783,22.8,48.95,25.4"/>
	</g>

		<animate  fill="remove" dur="3.208s" restart="always" attributeName="display" calcMode="linear" additive="replace" accumulate="none" values="none;inline;none;none" keyTimes="0;0.52;0.532;1" repeatCount="indefinite">
		</animate>
</g>
<g display="none">
	<g id="Scene_1_x5F_1.39" transform="" display="inline">
		<path fill="none" stroke="#F4E9D0" stroke-linecap="round" stroke-linejoin="round" d="M50.75,24.55c2.867,3.367,4.95,6.7,6.25,10
			c0.933,2.167,2.067,6.133,3.4,11.9c-1.333-5.767-2.467-9.733-3.4-11.9C55.7,31.25,53.617,27.917,50.75,24.55
			c-2.133-2.9-5.8-5.833-11-8.8c-4.467-2.6-8.133-4.383-11-5.35c2.867,0.967,6.533,2.75,11,5.35
			C44.95,18.717,48.617,21.65,50.75,24.55"/>
	</g>

		<animate  fill="remove" dur="3.208s" restart="always" attributeName="display" calcMode="linear" additive="replace" accumulate="none" values="none;inline;none;none" keyTimes="0;0.507;0.52;1" repeatCount="indefinite">
		</animate>
</g>
<g display="none">
	<g id="Scene_1_x5F_1.38" transform="" display="inline">
		<path fill="none" stroke="#F4E9D0" stroke-linecap="round" stroke-linejoin="round" d="M52.6,23.75
			c-2.133-3.2-5.717-6.533-10.75-10c-4.333-3-8-5-11-6c3,1,6.667,3,11,6C46.883,17.217,50.467,20.55,52.6,23.75
			c2.467,3.7,4.133,7.2,5,10.5c0.567,2.1,1.417,6.067,2.55,11.9c-1.133-5.833-1.983-9.8-2.55-11.9
			C56.733,30.95,55.067,27.45,52.6,23.75"/>
	</g>

		<animate  fill="remove" dur="3.208s" restart="always" attributeName="display" calcMode="linear" additive="replace" accumulate="none" values="none;inline;none;none" keyTimes="0;0.493;0.507;1" repeatCount="indefinite">
		</animate>
</g>
<g display="none">
	<g id="Scene_1_x5F_1.35" transform="" display="inline">
		<path fill="none" stroke="#F4E9D0" stroke-linecap="round" stroke-linejoin="round" d="M62.8,12c0.167-4.4,0.15-7.65-0.05-9.75
			C62.95,4.35,62.967,7.6,62.8,12c-0.2,6.1-0.3,9.933-0.3,11.5c0,4.033-0.117,7.633-0.35,10.8c-0.133,2.033-0.45,5.983-0.95,11.85
			c0.5-5.867,0.817-9.817,0.95-11.85c0.233-3.167,0.35-6.767,0.35-10.8C62.5,21.933,62.6,18.1,62.8,12"/>
	</g>

		<animate  fill="remove" dur="3.208s" restart="always" attributeName="display" calcMode="linear" additive="replace" accumulate="none" values="none;inline;none;none" keyTimes="0;0.454;0.493;1" repeatCount="indefinite">
		</animate>
</g>
<g display="none">
	<g id="Scene_1_x5F_1.34" transform="" display="inline">
		<path fill="none" stroke="#F4E9D0" stroke-linecap="round" stroke-linejoin="round" d="M61.2,46.15
			c0.633-5.867,1.067-9.817,1.3-11.85c0.367-3.2,0.833-6.783,1.4-10.75c0.467-1.967,1.333-5.667,2.6-11.1
			c1.1-4.067,1.917-7,2.45-8.8c-0.533,1.8-1.35,4.733-2.45,8.8c-1.267,5.433-2.133,9.133-2.6,11.1
			c-0.567,3.967-1.033,7.55-1.4,10.75C62.267,36.333,61.833,40.283,61.2,46.15"/>
	</g>

		<animate  fill="remove" dur="3.208s" restart="always" attributeName="display" calcMode="linear" additive="replace" accumulate="none" values="none;inline;none;none" keyTimes="0;0.442;0.454;1" repeatCount="indefinite">
		</animate>
</g>
<g display="none">
	<g id="Scene_1_x5F_1.33" transform="" display="inline">
		<path fill="none" stroke="#F4E9D0" stroke-linecap="round" stroke-linejoin="round" d="M61.2,46.15
			c0.767-5.833,1.317-9.783,1.65-11.85c0.5-3.233,1.3-6.783,2.4-10.65c0.967-2.4,2.617-5.983,4.95-10.75
			c2.033-3.7,3.683-6.333,4.95-7.9c-1.267,1.567-2.917,4.2-4.95,7.9c-2.333,4.767-3.983,8.35-4.95,10.75
			c-1.1,3.867-1.9,7.417-2.4,10.65C62.517,36.367,61.967,40.317,61.2,46.15"/>
	</g>

		<animate  fill="remove" dur="3.208s" restart="always" attributeName="display" calcMode="linear" additive="replace" accumulate="none" values="none;inline;none;none" keyTimes="0;0.429;0.442;1" repeatCount="indefinite">
		</animate>
</g>
<g display="none">
	<g id="Scene_1_x5F_1.32" transform="" display="inline">
		<path fill="none" stroke="#F4E9D0" stroke-linecap="round" stroke-linejoin="round" d="M61.2,46.15c0.9-5.833,1.55-9.8,1.95-11.9
			c0.633-3.267,1.8-6.783,3.5-10.55c1.4-2.8,3.817-6.267,7.25-10.4c2.967-3.333,5.433-5.633,7.4-6.9
			c-1.967,1.267-4.433,3.567-7.4,6.9c-3.433,4.133-5.85,7.6-7.25,10.4c-1.7,3.767-2.867,7.283-3.5,10.55
			C62.75,36.35,62.1,40.317,61.2,46.15"/>
	</g>

		<animate  fill="remove" dur="3.208s" restart="always" attributeName="display" calcMode="linear" additive="replace" accumulate="none" values="none;inline;none;none" keyTimes="0;0.416;0.429;1" repeatCount="indefinite">
		</animate>
</g>
<g display="none">
	<g id="Scene_1_x5F_1.31" transform="" display="inline">
		<path fill="none" stroke="#F4E9D0" stroke-linecap="round" stroke-linejoin="round" d="M68,23.75c1.9-3.2,5.1-6.533,9.6-10
			c3.9-3,7.2-5,9.9-6c-2.7,1-6,3-9.9,6C73.1,17.217,69.9,20.55,68,23.75c-2.233,3.7-3.733,7.2-4.5,10.5
			c-0.5,2.1-1.267,6.067-2.3,11.9c1.033-5.833,1.8-9.8,2.3-11.9C64.267,30.95,65.767,27.45,68,23.75"/>
	</g>

		<animate  fill="remove" dur="3.208s" restart="always" attributeName="display" calcMode="linear" additive="replace" accumulate="none" values="none;inline;none;none" keyTimes="0;0.403;0.416;1" repeatCount="indefinite">
		</animate>
</g>
<g display="none">
	<g id="Scene_1_x5F_1.30" transform="" display="inline">
		<path fill="none" stroke="#F4E9D0" stroke-linecap="round" stroke-linejoin="round" d="M61.2,46.15c1.3-5.7,2.433-9.65,3.4-11.85
			c1.367-3.333,3.433-6.6,6.2-9.8c1.933-2.8,5.283-5.6,10.05-8.4c4.067-2.433,7.383-4.133,9.95-5.1
			c-2.567,0.967-5.883,2.667-9.95,5.1c-4.767,2.8-8.117,5.6-10.05,8.4c-2.767,3.2-4.833,6.467-6.2,9.8
			C63.633,36.5,62.5,40.45,61.2,46.15"/>
	</g>

		<animate  fill="remove" dur="3.208s" restart="always" attributeName="display" calcMode="linear" additive="replace" accumulate="none" values="none;inline;none;none" keyTimes="0;0.39;0.403;1" repeatCount="indefinite">
		</animate>
</g>
<g display="none">
	<g id="Scene_1_x5F_1.29" transform="" display="inline">
		<path fill="none" stroke="#F4E9D0" stroke-linecap="round" stroke-linejoin="round" d="M84.05,18.45c4.3-1.9,7.667-3.3,10.1-4.2
			C91.717,15.15,88.35,16.55,84.05,18.45c-5,2.133-8.5,4.4-10.5,6.8c-3.3,2.7-5.917,5.733-7.85,9.1c-1.467,2.267-2.967,6.2-4.5,11.8
			c1.533-5.6,3.033-9.533,4.5-11.8c1.933-3.367,4.55-6.4,7.85-9.1C75.55,22.85,79.05,20.583,84.05,18.45"/>
	</g>

		<animate  fill="remove" dur="3.208s" restart="always" attributeName="display" calcMode="linear" additive="replace" accumulate="none" values="none;inline;none;none" keyTimes="0;0.377;0.39;1" repeatCount="indefinite">
		</animate>
</g>

<g display="none">
	<g id="Scene_1_x5F_1.27" transform="" display="inline">
		<path fill="none" stroke="#F4E9D0" stroke-linecap="round" stroke-linejoin="round" d="M90.5,23.1
			c4.667-0.733,8.1-1.517,10.3-2.35C98.6,21.583,95.167,22.367,90.5,23.1c-5.533,0.867-9.317,2.067-11.35,3.6
			c-4.4,1.7-8.15,4.283-11.25,7.75c-2.4,2.467-4.633,6.367-6.7,11.7c2.067-5.333,4.3-9.233,6.7-11.7c3.1-3.467,6.85-6.05,11.25-7.75
			C81.183,25.167,84.967,23.967,90.5,23.1"/>
	</g>

		<animate  fill="remove" dur="3.208s" restart="always" attributeName="display" calcMode="linear" additive="replace" accumulate="none" values="none;inline;none;none" keyTimes="0;0.351;0.364;1" repeatCount="indefinite">
		</animate>
</g>
<g display="none">
	<g id="Scene_1_x5F_1.26" transform="" display="inline">
		<path fill="none" stroke="#F4E9D0" stroke-linecap="round" stroke-linejoin="round" d="M81.9,27.45c2.1-1.133,6.05-1.8,11.85-2
			c4.833-0.2,8.283-0.683,10.35-1.45c-2.067,0.767-5.517,1.25-10.35,1.45C87.95,25.65,84,26.317,81.9,27.45
			c-4.9,1.2-9.2,3.533-12.9,7c-2.9,2.567-5.5,6.467-7.8,11.7c2.3-5.233,4.9-9.133,7.8-11.7C72.7,30.983,77,28.65,81.9,27.45"/>
	</g>

		<animate  fill="remove" dur="3.208s" restart="always" attributeName="display" calcMode="linear" additive="replace" accumulate="none" values="none;inline;none;none" keyTimes="0;0.338;0.351;1" repeatCount="indefinite">
		</animate>
</g>

<g display="none">
	<g id="Scene_1_x5F_1.24" transform="" display="inline">
		<path fill="none" stroke="#F4E9D0" stroke-linecap="round" stroke-linejoin="round" d="M87.45,28.9c2.167-0.3,6.417,0.1,12.75,1.2
			c5.233,0.933,8.75,1.067,10.55,0.4c-1.8,0.667-5.317,0.533-10.55-0.4C93.867,29,89.617,28.6,87.45,28.9
			c-5.967,0.2-11.383,2.083-16.25,5.65c-3.867,2.733-7.2,6.6-10,11.6c2.8-5,6.133-8.867,10-11.6
			C76.067,30.983,81.483,29.1,87.45,28.9"/>
	</g>

		<animate  fill="remove" dur="3.208s" restart="always" attributeName="display" calcMode="linear" additive="replace" accumulate="none" values="none;inline;none;none" keyTimes="0;0.312;0.325;1" repeatCount="indefinite">
		</animate>
</g>
<g display="none">
	<g id="Scene_1_x5F_1.22" transform="" display="inline">
		<path fill="none" stroke="#F4E9D0" stroke-linecap="round" stroke-linejoin="round" d="M89.2,31.45
			c0.6,0.033,1.217,0.067,1.85,0.1c2.7,0.333,7,1.317,12.9,2.95c4.967,1.4,8.467,2.033,10.5,1.9c-2.033,0.133-5.533-0.5-10.5-1.9
			c-5.9-1.633-10.2-2.617-12.9-2.95C90.417,31.517,89.8,31.483,89.2,31.45c-5.9-0.3-12.217,1.45-18.95,5.25
			c-3.833,2.433-6.733,5.55-8.7,9.35c1.967-3.8,4.867-6.917,8.7-9.35C76.983,32.9,83.3,31.15,89.2,31.45"/>
	</g>
	
		<animate  fill="remove" dur="3.208s" restart="always" attributeName="display" calcMode="linear" additive="replace" accumulate="none" values="none;inline;none;none" keyTimes="0;0.286;0.299;1" repeatCount="indefinite">
		</animate>
</g>
<g>
	<g id="Scene_1_x5F_0.0" transform="">
		<g transform="matrix(1 0 0 1 0 0.25)">
			<path fill="#F4E9D0" d="M116.65,47.9l-2.15-5c-4.9-1-10.2-1.983-15.9-2.95c-11.467-1.867-19.283-2.65-23.45-2.35
				c-4.033,0.3-9.15,2.867-15.35,7.7c-1-1.6-2.383-3.017-4.15-4.25c-2.833-1.967-6.25-3.1-10.25-3.4
				C40.667,37.317,32.467,38.1,20.8,40c-5.833,0.933-11.2,1.9-16.1,2.9l-2.15,5h56.2l1.3-1l1.85,1H116.65"/>
		</g>
		<path fill="#555" d="M121.65,51.1v-2.65H62.9c-0.5-1.367-1.2-2.05-2.1-2.05c-0.9,0-1.6,0.683-2.1,2.05H0v2.65h59.4v-1.35
			c0.267-1.033,0.733-1.55,1.4-1.55c0.733,0,1.217,0.633,1.45,1.9v1H121.65"/>
	</g>
</g>
</svg>
