<?xml version="1.0" encoding="utf-8"?>
<!-- Generator: Adobe Illustrator 17.0.0, SVG Export Plug-In . SVG Version: 6.00 Build 0)  -->
<!DOCTYPE svg PUBLIC "-//W3C//DTD SVG 1.1//EN" "http://www.w3.org/Graphics/SVG/1.1/DTD/svg11.dtd">
<svg version="1.1" xmlns="http://www.w3.org/2000/svg" xmlns:xlink="http://www.w3.org/1999/xlink" x="0px" y="0px"
	 width="53.542px" height="61.25px" viewBox="0 0 53.542 61.25" enable-background="new 0 0 53.542 61.25" xml:space="preserve">
<g id="grid">
	<g>
		<g>
			<polygon fill="none" stroke="#EEDBAC" stroke-miterlimit="10" points="0.859,45.651 0.815,15.675 26.753,0.649 52.735,15.599 
				52.779,45.575 26.841,60.601 			"/>
			<polyline fill="none" stroke="#EEDBAC" stroke-miterlimit="10" points="0.815,15.675 26.841,30.599 26.841,60.601 			"/>
			<line fill="none" stroke="#EEDBAC" stroke-miterlimit="10" x1="26.841" y1="30.599" x2="52.735" y2="15.599"/>
			<line fill="none" stroke="#EEDBAC" stroke-miterlimit="10" x1="8.7" y1="20.26" x2="34.594" y2="5.26"/>
			<line fill="none" stroke="#EEDBAC" stroke-miterlimit="10" x1="17.663" y1="25.392" x2="43.557" y2="10.392"/>
			<line fill="none" stroke="#EEDBAC" stroke-miterlimit="10" x1="8.7" y1="20.26" x2="8.7" y2="50.12"/>
			<line fill="none" stroke="#EEDBAC" stroke-miterlimit="10" x1="17.663" y1="25.392" x2="17.663" y2="55.252"/>
			<line fill="none" stroke="#EEDBAC" stroke-miterlimit="10" x1="45.837" y1="19.612" x2="19.944" y2="4.612"/>
			<line fill="none" stroke="#EEDBAC" stroke-miterlimit="10" x1="36.874" y1="24.744" x2="10.98" y2="9.744"/>
			<line fill="none" stroke="#EEDBAC" stroke-miterlimit="10" x1="45.837" y1="19.612" x2="45.837" y2="49.472"/>
			<line fill="none" stroke="#EEDBAC" stroke-miterlimit="10" x1="36.874" y1="24.744" x2="36.874" y2="54.604"/>
			<g>
				<line fill="none" stroke="#EEDBAC" stroke-miterlimit="10" x1="26.756" y1="50.408" x2="52.649" y2="35.408"/>
				<line fill="none" stroke="#EEDBAC" stroke-miterlimit="10" x1="26.756" y1="40.608" x2="52.649" y2="25.607"/>
			</g>
			<g>
				<line fill="none" stroke="#EEDBAC" stroke-miterlimit="10" x1="26.672" y1="50.255" x2="0.779" y2="35.255"/>
				<line fill="none" stroke="#EEDBAC" stroke-miterlimit="10" x1="26.672" y1="40.455" x2="0.779" y2="25.454"/>
			</g>
		</g>
	</g>
</g>
<g id="ball">
<animateTransform
        attributeType="xml"
	    attributeName="transform" type="rotate"
	    from="0 26.771 30.625" to="120 26.771 30.625"
	    begin="5s" dur="1.5s" repeatCount='indefinite'
	    />
	<circle fill="#FFFFFF" cx="8.7" cy="20.26" r="2.767"/>
    <circle fill="#FFFFFF" cx="45.837" cy="19.612" r="2.767" />
	<circle fill="#FFFFFF" cx="26.841" cy="50.408" r="2.767" />

</g>
</svg>
