<?xml version="1.0" encoding="utf-8"?>
<!-- Generator: Adobe Illustrator 17.0.0, SVG Export Plug-In . SVG Version: 6.00 Build 0)  -->
<!DOCTYPE svg PUBLIC "-//W3C//DTD SVG 1.1//EN" "http://www.w3.org/Graphics/SVG/1.1/DTD/svg11.dtd">

<svg version="1.1"
	 xmlns="http://www.w3.org/2000/svg" xmlns:xlink="http://www.w3.org/1999/xlink" x="0px" y="0px" width="306.255px"
	 height="166.982px" viewBox="0 0 306.255 166.982" enable-background="new 0 0 306.255 166.982" xml:space="preserve">
     <polygon opacity="0.3" id="light" fill="#fff" points="87.171,43.187 143.667,128.982 306.255,128.982 96.074,14.152 "/>
        <g id="XMLID_1_">
	<g >
		<g>
			<path fill="#EFCA79" d="M16.5,81.982h-5c0-1.116-0.012-2.386-0.025-3.787c-0.2-21.058-0.668-70.371,33.335-77.657
				c15.116-3.242,32.584,9.219,33.321,9.751l-2.926,4.054C75.041,14.226,58.79,2.659,45.857,5.426
				c-30.012,6.431-29.571,52.885-29.383,72.721C16.488,79.566,16.5,80.852,16.5,81.982z"/>
		</g>
		<polygon fill="#A3791F" points="92.749,10.128 89.456,14.254 75.541,5.319 69.228,12.937 79.609,26.592 75.667,31.532 
			93.34,55.721 119.772,25.215 		"/>
	</g>
	<g>
		<polygon fill="#C0902A" points="19.152,118.917 17.75,79.898 10,79.898 9.065,118.917 0,118.917 0,124.648 0,152.482 
			12.75,152.482 12.75,124.648 31.5,124.648 31.5,118.917 		"/>
		<rect x="15.75" y="148.315" fill="#EFCA79" width="3.25" height="18.667"/>
		<rect x="2.75" y="152.536" fill="#C0902A" width="28.75" height="5.391"/>
	</g>
</g>
</svg>
