<?xml version="1.0" encoding="utf-8"?>
<!-- Generator: Adobe Illustrator 17.0.0, SVG Export Plug-In . SVG Version: 6.00 Build 0)  -->
<!DOCTYPE svg PUBLIC "-//W3C//DTD SVG 1.1//EN" "http://www.w3.org/Graphics/SVG/1.1/DTD/svg11.dtd">
<svg version="1.1" id="Scene_1" image-rendering="auto"
	 xmlns="http://www.w3.org/2000/svg" xmlns:xlink="http://www.w3.org/1999/xlink" x="0px" y="0px" width="194px" height="194px"
	 viewBox="0 0 194 194" enable-background="new 0 0 194 194" xml:space="preserve">
<g>
	<g id="Scene_1_x5F_2.0" transform="">
		<path fill="#FAD8C8" d="M173.1,154.2c-1.867-1.3-3.667-2.2-5.4-2.7c-1.333-0.4-8.833-3.583-22.5-9.55
			c-14.433-6.333-24.217-10.4-29.35-12.2V93.3H76.2v36.45c-5.1,1.8-14.867,5.867-29.3,12.2c-13.667,5.967-21.183,9.15-22.55,9.55
			c-1.367,0.433-2.967,1.2-4.8,2.3c9,11.867,20.1,21.15,33.3,27.85c13.667,6.967,28.217,10.45,43.65,10.45
			c15.3,0,29.75-3.433,43.35-10.3C153.017,175.133,164.1,165.933,173.1,154.2"/>
		<path fill="#E0B9AB" d="M109.2,117.95c1.533,1.6,3.75,5.867,6.65,12.8l-0.1-32.35l-20.05,9.75l5.9,4
			C105.7,115.017,108.233,116.95,109.2,117.95"/>
		<path fill="#FAD8C8" d="M126.15,91.4l2.75-39.1L95.7,24.5L64.05,52.3l2.75,39.1l6.6,10.2l14.85,14.2h16.45l14.9-14.2L126.15,91.4"
			/>
		<path fill="#E0B9AB" d="M126.15,91.4l0.6-39.65l-6.8-6.8l2.95,9.85c1.7,6.667,1.833,10.233,0.4,10.7
			c-1.467,0.467-1.917,1.45-1.35,2.95c0.4,1.033,1.117,2.067,2.15,3.1c0.7,0.733,0.717,4.117,0.05,10.15
			c-0.667,6.333-1.733,10.9-3.2,13.7c-1.3,2.533-4.4,6.7-9.3,12.5c-2.433,2.9-4.75,5.533-6.95,7.9l14.9-14.2L126.15,91.4"/>
		<path fill="#E0B9AB" d="M66.4,88.1l0.4,3.3l6.6,10.2l15.15,14.2l1.1-1.75l-7.3-6L72.25,97.6L66.4,88.1"/>
		<path fill="#703500" d="M103.3,119.1l3.5-6.6l-5.05,2.95l-4.9-2.95l-4.65,2.25l-5.3-2.25l3.1,6.6H103.3"/>
		<path fill="#0069BB" d="M94,69.9v-4.95c0-1.2-0.45-2.217-1.35-3.05c-0.9-0.867-2-1.3-3.3-1.3h-15c-1.267,0-2.367,0.433-3.3,1.3
			c-0.9,0.833-1.35,1.85-1.35,3.05v4.95h3.4v-4.95c0-0.267,0.117-0.483,0.35-0.65c0.267-0.2,0.567-0.3,0.9-0.3h15
			c0.333,0,0.633,0.1,0.9,0.3c0.233,0.167,0.35,0.383,0.35,0.65v4.95H94"/>
		<path fill="#0069BB" d="M120.4,61.9c-0.933-0.867-2.05-1.3-3.35-1.3H101.8c-1.3,0-2.4,0.433-3.3,1.3
			c-0.933,0.833-1.4,1.85-1.4,3.05v4.95h3.45v-4.95c0-0.267,0.117-0.483,0.35-0.65c0.267-0.2,0.567-0.3,0.9-0.3h15.25
			c0.333,0,0.633,0.1,0.9,0.3c0.267,0.167,0.4,0.383,0.4,0.65v4.95h3.4v-4.95C121.75,63.75,121.3,62.733,120.4,61.9"/>
		<path fill="#0069BB" d="M92,66.65v3.4h7.95v-3.4H92"/>
		<path fill="#0069BB" d="M119.5,65.55l1.05,3.25l9.85-3.25l-1.05-3.2L119.5,65.55"/>
		<path fill="#0069BB" d="M62,61.75l-1.05,3.2l9.8,3.25l1.1-3.25L62,61.75"/>
		<path fill="#595757" d="M112.9,16.6l-18.75-2.85l-23.25,8.5l-6.85,9.05l-5.9,11.95l4,39.1l4.65,9.05l-1.25-33.45L69.8,46.9
			l8.2-1.75c5.867-1.267,9.783-2.183,11.75-2.75c3.2-0.933,9.5-3.217,18.9-6.85l17.85,20.7l-0.3,36.55l7.05-37.8l-5.5-22.25
			l-8.35-6.8L112.9,16.6"/>
		<path fill="#595757" d="M94.25,98.9v-3.3l-10.1,5.6L94.25,98.9"/>
		<path fill="#595757" d="M99.1,95.6v3.3l10.1,2.3L99.1,95.6"/>
		<path fill="#56A5A8" d="M174.95,152.35l-1.35-1.3l-56.95-23.35l-20,45.45l-14.8-29.65l-5.45-15.8l-56.95,23.35l-1.9,0.6
			c8.933,12.667,20.2,22.617,33.8,29.85c14.067,7.5,29.117,11.25,45.15,11.25c15.867,0,30.8-3.683,44.8-11.05
			C154.8,174.6,166.017,164.817,174.95,152.35"/>
		<path fill="#418F8F" d="M96.65,173.15L82,158.1l14.5,21.05L96.65,173.15"/>
		<path fill="#418F8F" d="M111.3,158.1l-14.65,15.05l0.15,6L111.3,158.1"/>
		<path fill="#25607C" d="M108.95,148.95l-8.15,43.85l5.8-0.4l7.9-42.4L108.95,148.95"/>
		<path fill="#25607C" d="M83.55,191.9c1.767,0.267,3.733,0.483,5.9,0.65l-8.25-44.3l-5.55,1.05L83.55,191.9"/>
		<path fill="#88D1CF" d="M67.2,146.05l8.9-1.55l-0.95,6.55l21.5,22.1l-14.8-29.65l-7.2-22.4L67.2,146.05"/>
		<path fill="#88D1CF" d="M117.45,122.05l-7.25,22.4L95.4,174.1l21.5-22l-0.9-6.65l8.85,1.55L117.45,122.05"/>
		<path fill="none" stroke="#CEA05D" stroke-width="8" stroke-miterlimit="10" d="M189.5,97c0-12.457-2.422-24.39-7.265-35.799
			c-4.684-10.996-11.28-20.736-19.788-29.221c-8.508-8.517-18.291-15.095-29.348-19.735C121.691,7.415,109.741,5,97.25,5
			s-24.457,2.415-35.896,7.246c-11.025,4.64-20.792,11.218-29.3,19.735c-8.54,8.485-15.136,18.225-19.788,29.221
			C7.422,72.61,5,84.543,5,97s2.422,24.374,7.265,35.751c4.652,11.027,11.248,20.783,19.788,29.268
			c8.508,8.485,18.275,15.063,29.3,19.735C72.793,186.585,84.759,189,97.25,189s24.441-2.415,35.848-7.246
			c11.057-4.671,20.84-11.25,29.348-19.735s15.104-18.241,19.788-29.268C187.078,121.374,189.5,109.457,189.5,97"/>
	</g>
</g>
<g display="none">
	<g id="Scene_1_x5F_1.28" transform="" display="inline">
		<path d="M83.75,69.9c0-0.667-0.233-1.233-0.7-1.7s-1.033-0.7-1.7-0.7c-0.667,0-1.233,0.233-1.7,0.7
			c-0.467,0.467-0.7,1.033-0.7,1.7c0,0.667,0.233,1.233,0.7,1.7c0.467,0.467,1.033,0.7,1.7,0.7c0.667,0,1.233-0.233,1.7-0.7
			C83.517,71.133,83.75,70.567,83.75,69.9"/>
	</g>
	
		<animate  fill="remove" dur="2.417s" restart="always" attributeName="display" calcMode="linear" additive="replace" accumulate="none" values="none;inline;none" keyTimes="0;0.483;1" repeatCount="indefinite">
		</animate>
</g>
<g display="none">
	<g id="Scene_1_x5F_1.20" transform="" display="inline">
		<path d="M83.05,70.55c0.467-0.2,0.7-0.45,0.7-0.75c0-0.3-0.233-0.55-0.7-0.75c-0.467-0.2-1.033-0.3-1.7-0.3
			c-0.667,0-1.233,0.1-1.7,0.3c-0.467,0.2-0.7,0.45-0.7,0.75c0,0.3,0.233,0.55,0.7,0.75c0.467,0.2,1.033,0.3,1.7,0.3
			C82.017,70.85,82.583,70.75,83.05,70.55"/>
	</g>
	
		<animate  fill="remove" dur="2.417s" restart="always" attributeName="display" calcMode="linear" additive="replace" accumulate="none" values="none;inline;none;none" keyTimes="0;0.345;0.483;1" repeatCount="indefinite">
		</animate>
</g>
<g>
	<g id="Scene_1_x5F_1.0" transform="">
		<path d="M83.75,69.9c0-0.667-0.233-1.233-0.7-1.7s-1.033-0.7-1.7-0.7c-0.667,0-1.233,0.233-1.7,0.7
			c-0.467,0.467-0.7,1.033-0.7,1.7c0,0.667,0.233,1.233,0.7,1.7c0.467,0.467,1.033,0.7,1.7,0.7c0.667,0,1.233-0.233,1.7-0.7
			C83.517,71.133,83.75,70.567,83.75,69.9"/>
	</g>
	
		<animate  fill="remove" dur="2.417s" restart="always" attributeName="display" calcMode="linear" additive="replace" accumulate="none" values="inline;none;none" keyTimes="0;0.345;1" repeatCount="indefinite">
		</animate>
</g>
<g display="none">
	<g id="Scene_1_x5F_0.28" transform="" display="inline">
		<path d="M108.2,68.2c-0.467,0.467-0.7,1.033-0.7,1.7c0,0.667,0.233,1.233,0.7,1.7c0.467,0.467,1.033,0.7,1.7,0.7
			c0.667,0,1.233-0.233,1.7-0.7c0.467-0.467,0.7-1.033,0.7-1.7c0-0.667-0.233-1.233-0.7-1.7c-0.467-0.467-1.033-0.7-1.7-0.7
			C109.233,67.5,108.667,67.733,108.2,68.2"/>
	</g>
	
		<animate  fill="remove" dur="2.417s" restart="always" attributeName="display" calcMode="linear" additive="replace" accumulate="none" values="none;inline;none" keyTimes="0;0.483;1" repeatCount="indefinite">
		</animate>
</g>
<g display="none">
	<g id="Scene_1_x5F_0.20" transform="" display="inline">
		<path d="M108.2,69.4c-0.467,0.167-0.7,0.383-0.7,0.65c0,0.267,0.233,0.483,0.7,0.65c0.467,0.167,1.033,0.25,1.7,0.25
			c0.667,0,1.233-0.083,1.7-0.25c0.467-0.167,0.7-0.383,0.7-0.65c0-0.267-0.233-0.483-0.7-0.65c-0.467-0.167-1.033-0.25-1.7-0.25
			C109.233,69.15,108.667,69.233,108.2,69.4"/>
	</g>
	
		<animate  fill="remove" dur="2.417s" restart="always" attributeName="display" calcMode="linear" additive="replace" accumulate="none" values="none;inline;none;none" keyTimes="0;0.345;0.483;1" repeatCount="indefinite">
		</animate>
</g>
<g>
	<g id="Scene_1_x5F_0.0" transform="">
		<path d="M108.2,68.2c-0.467,0.467-0.7,1.033-0.7,1.7c0,0.667,0.233,1.233,0.7,1.7c0.467,0.467,1.033,0.7,1.7,0.7
			c0.667,0,1.233-0.233,1.7-0.7c0.467-0.467,0.7-1.033,0.7-1.7c0-0.667-0.233-1.233-0.7-1.7c-0.467-0.467-1.033-0.7-1.7-0.7
			C109.233,67.5,108.667,67.733,108.2,68.2"/>
	</g>
	
		<animate  fill="remove" dur="2.417s" restart="always" attributeName="display" calcMode="linear" additive="replace" accumulate="none" values="inline;none;none" keyTimes="0;0.345;1" repeatCount="indefinite">
		</animate>
</g>
</svg>
