<?xml version="1.0" encoding="utf-8"?>
<!-- Generator: Adobe Illustrator 17.0.0, SVG Export Plug-In . SVG Version: 6.00 Build 0)  -->
<!DOCTYPE svg PUBLIC "-//W3C//DTD SVG 1.1//EN" "http://www.w3.org/Graphics/SVG/1.1/DTD/svg11.dtd">
<svg version="1.1" id="layout1" xmlns="http://www.w3.org/2000/svg" xmlns:xlink="http://www.w3.org/1999/xlink" x="0px" y="0px"
	 width="160.17px" height="692.617px" viewBox="0 0 160.17 692.617" enable-background="new 0 0 160.17 692.617"
	 xml:space="preserve">
<polygon fill="#F6D9CA" points="119.587,660.5 112.587,639.5 124.087,529 121.587,504 130.057,343.809 31.531,343.809 40.002,504 
	37.502,529 49.002,639.5 42.002,660.5 29.002,675 40.502,686 53.752,686 69.502,658.5 64.002,640.5 70.002,548 69.502,509.5 
	74.002,492 80.794,401.998 87.587,492 92.087,509.5 91.587,548 97.587,640.5 92.087,658.5 107.837,686 121.087,686 132.587,675 "/>
<line fill="none" stroke="#000000" stroke-miterlimit="10" x1="140.667" y1="134.667" x2="141" y2="134.667"/>
<g>
	<g>
		<g>
			<path fill="#F6D9CA" d="M154.224,128.5c0,0-5.109-5.5-10.217-7c-4.289-1.259-33.417-14.851-45.722-19.181V70.177h-2.029H65.333
				h-2.029v32.142C51,106.649,21.871,120.241,17.582,121.5c-5.109,1.5-10.217,7-10.217,7L5.322,242l3.065,106.5l4.342,26.5
				l15.581,17l0.511-4l-7.663-14.5l2.554-10.5l7.408,18.5l2.81-4.5l-1.788-23.25l-7.408-8.441L28.31,240l0.255-13.75l-0.519-48.223
				l9.459,54.223V315l-5.975,28.809l43.777,20.884h10.973l43.777-20.884l-3.78-29.97l-3.616-79.505l10.88-56.306l-0.519,48.223
				l0.255,13.75l3.576,105.309l-7.408,8.441L127.659,377l2.81,4.5l7.408-18.5l2.554,10.5l-7.663,14.5l0.511,4l15.581-17l4.342-26.5
				l3.065-106.5L154.224,128.5z"/>
			<circle fill="#CD7764" cx="49" cy="178.298" r="2.798"/>
			<circle fill="#CD7764" cx="111.236" cy="178.298" r="2.798"/>
			<g>
				<polygon fill="#DBBBAD" points="71.418,118.5 36.75,127.25 71.418,122.5 				"/>
				<polygon fill="#DBBBAD" points="89.559,118.5 124.227,127.25 89.559,122.5 				"/>
			</g>
		</g>
		<polygon fill="#DBBBAD" points="22.682,376.384 19.96,372.521 19.938,370.875 23.592,359.082 27.375,368.667 29.367,377.12 
			23.882,363.423 21.158,373.5 		"/>
		<polygon fill="#DBBBAD" points="30.188,351.523 33.93,377 32.142,353.75 		"/>
		<polygon fill="#DBBBAD" points="128.784,378.802 129.447,353.75 127.659,377 		"/>
		<polygon fill="#DBBBAD" points="132.767,388 141.625,374.5 140.25,364.75 137.876,363 140,374.25 132.767,386.938 		"/>
	</g>
	<path fill="#DBBBAD" d="M80.511,83.257c0,0,9.876,6.512,11.894,8.637c2.018,2.126,5.879,11.272,5.879,11.272l-0.122-28.51
		L80.511,83.257z"/>
</g>
<g>
	<g>
		<polygon fill="#F6D9CA" points="80.511,9.5 52.601,34 55.017,68.5 60.814,77.5 73.938,90 88.431,90 101.555,77.5 107.353,68.5 
			109.768,34 		"/>
		<path fill="#DBBBAD" d="M101.893,27.5c0,0,5.954,17.178,2.954,18.137c-3,0.958-0.391,4.226,0.671,5.363s0,15.625-2.75,21
			S88.431,90,88.431,90l13.124-12.5l5.797-9l0.54-35L101.893,27.5z"/>
		<polygon fill="#DBBBAD" points="54.643,65.583 59.812,73.967 63.393,77.792 68.726,83.167 75.143,88.458 74.206,90 60.814,77.5 
			55.017,68.5 		"/>
		<polygon fill="#6A3906" points="87.178,92.927 75.472,92.927 72.749,87.073 77.408,89.071 81.511,87.073 85.839,89.698 
			90.273,87.073 		"/>
		<g>
			<circle fill="#231815" cx="93.024" cy="49.542" r="2.042"/>
			<circle cx="68.141" cy="49.75" r="2.25"/>
			<g>
				<g>
					<g>
						<path fill="#036EB8" d="M79,49.526h-3v-4.37c0-0.459-0.498-0.848-1.087-0.848H61.653c-0.589,0-1.087,0.388-1.087,0.848v4.37
							h-3v-4.37c0-2.122,1.833-3.848,4.087-3.848h13.259c2.254,0,4.087,1.726,4.087,3.848V49.526z"/>
					</g>
					<g>
						<path fill="#036EB8" d="M103.456,49.526h-3v-4.37c0-0.459-0.516-0.848-1.126-0.848H85.875c-0.609,0-1.125,0.388-1.125,0.848
							v4.37h-3v-4.37c0-2.122,1.851-3.848,4.125-3.848H99.33c2.275,0,4.126,1.726,4.126,3.848V49.526z"/>
					</g>
					<g>
						<rect x="77.25" y="46.656" fill="#036EB8" width="7" height="3"/>
					</g>
				</g>
				<g>
					
						<rect x="104.79" y="41.141" transform="matrix(0.3118 0.9501 -0.9501 0.3118 116.5702 -69.5391)" fill="#036EB8" width="3" height="9.124"/>
				</g>
				<g>
					
						<rect x="50.081" y="43.667" transform="matrix(0.9501 0.3118 -0.3118 0.9501 16.8098 -14.7877)" fill="#036EB8" width="9.124" height="3"/>
				</g>
			</g>
			<path fill="#595757" d="M58.643,7.5l-6.042,8L47.393,26l3.5,34.5l4.124,8L53.893,39l3.75-9.75c0,0,13.407-2.769,17.625-4
				c4.218-1.231,16.625-6,16.625-6l15.75,18.25l-0.242,32.238l6.227-33.359l-4.861-19.63l-7.375-6l-5.75-8.25L79.143,0L58.643,7.5z"
				/>
		</g>
	</g>
	<g>
		<polygon fill="#595757" points="70.302,77.137 79.196,72.177 79.196,75.113 		"/>
		<polygon fill="#595757" points="92.405,77.137 83.511,72.177 83.511,75.113 		"/>
	</g>
</g>
<path fill="#DBBBAD" d="M13.083,238.167c0,0,3.458,1,5.625,0.833s4.458-1.5,4.458-1.5s-0.708,3.333-4.333,3.5
	S13.083,238.167,13.083,238.167z"/>
<path fill="#DBBBAD" d="M137.083,232.167c0,0,3.458,1,5.625,0.833c2.167-0.167,4.458-1.5,4.458-1.5s-0.708,3.333-4.333,3.5
	S137.083,232.167,137.083,232.167z"/>
</svg>
