<?xml version="1.0" encoding="utf-8"?>
<!-- Generator: Adobe Illustrator 17.0.0, SVG Export Plug-In . SVG Version: 6.00 Build 0)  -->
<!DOCTYPE svg PUBLIC "-//W3C//DTD SVG 1.1//EN" "http://www.w3.org/Graphics/SVG/1.1/DTD/svg11.dtd">
<svg version="1.1" id="图层_1" xmlns="http://www.w3.org/2000/svg" xmlns:xlink="http://www.w3.org/1999/xlink" x="0px" y="0px"
	 width="74.5px" height="38.581px" viewBox="0 0 74.5 38.581" enable-background="new 0 0 74.5 38.581" xml:space="preserve">
<linearGradient id="SVGID_1_" gradientUnits="userSpaceOnUse" x1="219.2422" y1="-289.9061" x2="255.4878" y2="-268.9797" gradientTransform="matrix(1 0 0 -1 -209.62 -260.799)">
	<stop  offset="0" style="stop-color:#FFFFFF"/>
	<stop  offset="1" style="stop-color:#000000"/>
</linearGradient>
<polygon fill="url(#SVGID_1_)" points="15.25,38.581 43.875,15.456 38,0 8.25,22.456 "/>
<polygon fill="#181818" points="0,0 38,0 43.875,15.456 0,15.456 "/>
<polygon fill="#181818" points="8.25,22.456 15.25,38.581 75.011,38.581 71.136,30.519 75.011,22.456 "/>
<g>
	<path fill="#FFFFFF" d="M16.834,3.452c0.552-0.096,1.283-0.18,2.231-0.18c1.127,0,1.979,0.24,2.53,0.732
		c0.516,0.443,0.828,1.139,0.828,1.979c0,2.231-1.775,2.999-3.43,2.999c-0.288,0-0.552-0.012-0.779-0.06v3.598h-1.379L16.834,3.452
		L16.834,3.452z M18.214,7.805c0.204,0.06,0.456,0.072,0.779,0.072c1.271,0,2.039-0.66,2.039-1.835c0-1.115-0.768-1.679-1.883-1.679
		c-0.432,0-0.756,0.048-0.936,0.083v3.359H18.214z"/>
	<path fill="#FFFFFF" d="M23.854,3.463c0.66-0.108,1.475-0.192,2.339-0.192c3.91,0,4.725,2.411,4.725,4.45v0.012
		c0,1.667-0.516,2.878-1.319,3.658c-0.827,0.804-2.135,1.211-3.754,1.211c-0.815,0-1.475-0.036-1.991-0.108
		C23.854,12.494,23.854,3.463,23.854,3.463z M25.246,11.439c0.24,0.036,0.576,0.048,0.899,0.048c2.063,0.012,3.311-1.2,3.311-3.73
		c0-2.231-1.151-3.382-3.13-3.382c-0.48,0-0.84,0.048-1.08,0.096V11.439z"/>
	<path fill="#FFFFFF" d="M32.35,12.519V3.344h4.773v1.163h-3.382v2.831h3.143v1.151h-3.143v4.03
		C33.741,12.519,32.35,12.519,32.35,12.519z"/>
</g>
<path fill="#D04832" d="M14.153,9.099l-0.035-0.032c-0.116-0.103-0.667-0.473-2.712-0.372c-0.279,0.014-0.595,0.049-0.94,0.104
	C9.785,8.422,9.294,7.923,8.924,7.235c-0.269-0.5-0.501-0.98-0.691-1.427c0.044-0.182,0.088-0.395,0.125-0.571
	c0.034-0.161,0.059-0.291,0.073-0.331L8.375,4.879l0.077,0.005l0.033-0.24c0.141-1.01,0.25-2.037-0.094-2.525
	c-0.174-0.249-0.61-0.51-0.938-0.472C7.274,1.669,7.118,1.773,6.99,1.955c-0.105,0.148-0.178,0.328-0.224,0.45
	C6.443,3.266,7.15,5.358,7.41,6.07C7.182,6.692,6.884,7.305,6.491,8.095L6.139,8.806c-1.463,2.98-2.403,3.914-2.696,3.991
	c-0.114,0.03-0.195,0.044-0.264,0.05c0.008-0.038,0.022-0.089,0.046-0.155c0.112-0.315,0.985-1.281,1.621-1.73l-0.175-0.284
	c-0.307,0.164-1.851,1.018-2.12,1.776c-0.093,0.264-0.189,0.646,0.058,0.913c0.122,0.132,0.297,0.199,0.52,0.199
	c0.181,0,0.37-0.044,0.496-0.078c0.606-0.16,1.421-1.158,2.424-2.965c0.381-0.111,2.437-0.698,4.188-0.977
	c1.173,0.714,2.371,1.054,3.598,1.022l0.111-0.004l0.283-0.738l0.16,0.058L14.153,9.099z M7.658,2.852
	C7.67,2.78,7.684,2.7,7.698,2.631c0.105,0.223,0.227,0.678,0.314,1.182c-0.068,0.322-0.13,0.602-0.19,0.852
	C7.526,3.626,7.616,3.098,7.658,2.852z M6.78,9.121l0.503-1.014C7.476,7.72,7.65,7.37,7.799,7.039
	c0.108,0.244,0.212,0.46,0.308,0.637C8.193,7.834,8.699,8.42,9.449,9.001c-1.15,0.264-2.304,0.636-3.065,0.9
	C6.539,9.605,6.674,9.337,6.78,9.121z M14.031,9.774c-0.824-0.12-1.47-0.242-2.008-0.381c1.288-0.01,1.636,0.221,1.639,0.223
	l0.459,0.171L14.031,9.774z"/>
<g>
	<path fill="#FFFFFF" d="M16.098,28.715c0-0.359-0.017-0.602-0.067-0.952c0.292,0.018,0.518,0.025,0.918,0.025h1.41
		c1.861,0,2.921,1.135,2.921,3.13c0,1.044-0.317,1.911-0.893,2.471c-0.5,0.492-1.193,0.743-2.028,0.743h-1.41
		c-0.401,0-0.626,0.008-0.918,0.024c0.05-0.325,0.067-0.575,0.067-0.993V28.715z M18.343,33.547c0.66,0,1.185-0.191,1.561-0.592
		c0.459-0.468,0.701-1.177,0.701-2.037c0-0.868-0.217-1.535-0.66-1.978c-0.367-0.385-0.885-0.568-1.569-0.568h-1.628v5.175H18.343z"
		/>
	<path fill="#FFFFFF" d="M27.917,30.96c0,2.012-1.126,3.297-2.888,3.297c-1.761,0-2.879-1.285-2.879-3.297
		c0-2.003,1.135-3.297,2.887-3.297C26.799,27.664,27.917,28.949,27.917,30.96z M26.49,33.097c0.476-0.468,0.742-1.244,0.742-2.137
		c0-0.918-0.25-1.652-0.734-2.137c-0.384-0.376-0.885-0.576-1.461-0.576c-1.335,0-2.211,1.068-2.211,2.704
		c0,1.637,0.885,2.713,2.22,2.713C25.622,33.665,26.114,33.473,26.49,33.097z"/>
	<path fill="#FFFFFF" d="M34.119,34.132c-0.033-0.167-0.108-0.468-0.217-0.802L32.8,29.725c-0.108-0.359-0.184-0.643-0.241-0.96
		c-0.017,0.059-0.034,0.108-0.034,0.142c-0.058,0.218-0.167,0.651-0.217,0.818l-1.093,3.605c-0.143,0.451-0.176,0.593-0.218,0.802
		h-0.643c-0.024-0.15-0.024-0.15-0.226-0.826l-1.318-4.566c-0.134-0.459-0.209-0.676-0.342-0.951h0.843
		c0.017,0.25,0.066,0.526,0.158,0.868l0.985,3.622c0.059,0.2,0.108,0.435,0.226,0.943c0.083-0.334,0.184-0.726,0.25-0.951
		l1.118-3.664c0.092-0.301,0.167-0.626,0.192-0.818h0.626c0.042,0.25,0.1,0.501,0.2,0.818l1.118,3.655
		c0.051,0.184,0.084,0.309,0.251,0.96l0.225-0.96l0.985-3.605c0.083-0.325,0.142-0.626,0.158-0.868h0.835
		c-0.125,0.284-0.192,0.484-0.325,0.951l-1.327,4.566c-0.184,0.634-0.184,0.643-0.217,0.826H34.119z"/>
	<path fill="#FFFFFF" d="M38.284,27.789c0.075,0.192,0.184,0.376,0.426,0.751l2.637,3.948c0.092,0.142,0.343,0.551,0.543,0.91
		c-0.033-0.668-0.05-1.035-0.05-1.11v-3.539c0-0.409-0.018-0.668-0.067-0.96h0.776c-0.05,0.301-0.066,0.534-0.066,0.96v4.448
		c0,0.418,0.017,0.668,0.066,0.936h-0.91c-0.116-0.242-0.208-0.409-0.434-0.752l-2.68-4.022c-0.066-0.101-0.342-0.576-0.459-0.802
		c0.034,0.393,0.051,0.802,0.051,1.019v3.564c0,0.442,0.017,0.718,0.066,0.993h-0.776c0.05-0.268,0.067-0.56,0.067-0.993v-4.416
		c0-0.384-0.018-0.634-0.067-0.935H38.284z"/>
	<path fill="#FFFFFF" d="M44.762,34.132c-0.384,0-0.618,0.008-0.91,0.024c0.05-0.316,0.066-0.584,0.066-0.993v-4.39
		c0-0.435-0.017-0.693-0.066-0.985h0.785c-0.051,0.309-0.067,0.526-0.067,0.985v4.766h2.629c0.418,0,0.644-0.017,0.969-0.059v0.71
		c-0.268-0.042-0.501-0.059-0.969-0.059H44.762z"/>
	<path fill="#FFFFFF" d="M54.435,30.96c0,2.012-1.126,3.297-2.888,3.297c-1.761,0-2.88-1.285-2.88-3.297
		c0-2.003,1.136-3.297,2.889-3.297C53.316,27.664,54.435,28.949,54.435,30.96z M53.008,33.097c0.476-0.468,0.742-1.244,0.742-2.137
		c0-0.918-0.25-1.652-0.734-2.137c-0.384-0.376-0.885-0.576-1.46-0.576c-1.336,0-2.212,1.068-2.212,2.704
		c0,1.637,0.885,2.713,2.22,2.713C52.14,33.665,52.632,33.473,53.008,33.097z"/>
	<path fill="#FFFFFF" d="M60.152,34.132c-0.066-0.301-0.158-0.593-0.259-0.852l-0.434-1.077h-2.913l-0.435,1.077
		c-0.125,0.317-0.2,0.56-0.258,0.852h-0.868c0.167-0.275,0.225-0.401,0.45-0.96l1.87-4.607c0.158-0.393,0.225-0.584,0.267-0.776
		h0.843c0.034,0.158,0.075,0.268,0.284,0.776l1.87,4.607c0.208,0.501,0.316,0.743,0.441,0.96H60.152z M58.183,28.874
		c-0.025-0.066-0.025-0.075-0.184-0.534c-0.042,0.125-0.075,0.217-0.092,0.275c-0.05,0.134-0.075,0.226-0.092,0.259l-1.068,2.755
		h2.513L58.183,28.874z"/>
	<path fill="#FFFFFF" d="M61.839,28.715c0-0.359-0.017-0.602-0.066-0.952c0.292,0.018,0.518,0.025,0.918,0.025h1.411
		c1.861,0,2.921,1.135,2.921,3.13c0,1.044-0.317,1.911-0.893,2.471c-0.501,0.492-1.194,0.743-2.028,0.743H62.69
		c-0.4,0-0.626,0.008-0.918,0.024c0.05-0.325,0.066-0.575,0.066-0.993V28.715z M64.085,33.547c0.659,0,1.185-0.191,1.561-0.592
		c0.459-0.468,0.701-1.177,0.701-2.037c0-0.868-0.217-1.535-0.659-1.978c-0.367-0.385-0.885-0.568-1.569-0.568H62.49v5.175H64.085z"
		/>
</g>
</svg>
