<?xml version="1.0" encoding="utf-8"?>
<!-- Generator: Adobe Illustrator 17.0.0, SVG Export Plug-In . SVG Version: 6.00 Build 0)  -->
<!DOCTYPE svg PUBLIC "-//W3C//DTD SVG 1.1//EN" "http://www.w3.org/Graphics/SVG/1.1/DTD/svg11.dtd">
<svg version="1.1" id="图层_1" xmlns="http://www.w3.org/2000/svg" xmlns:xlink="http://www.w3.org/1999/xlink" x="0px" y="0px"
	 width="59.997px" height="108.843px" viewBox="0 0 59.997 108.843" enable-background="new 0 0 59.997 108.843"
	 xml:space="preserve">
<g>
	<g>
		<g>
			<ellipse fill="#407A57" cx="31.332" cy="41.375" rx="15.5" ry="41.375"/>
			<path fill="#006934" d="M29.999,1.667c0,0-5.78,9.667-8.249,21.833s-0.871,27-0.871,27h6.666c0,0-0.5-20.833-0.5-27
				S29.999,1.667,29.999,1.667z"/>
			<path fill="#006934" d="M32.37,1.667c0,0,5.78,9.667,8.249,21.833c2.469,12.167,0.871,27,0.871,27h-6.666c0,0,0.5-20.833,0.5-27
				S32.37,1.667,32.37,1.667z"/>
		</g>
		<polygon fill="#006934" points="40.48,14.236 45.313,11.903 40.48,16.736 		"/>
		<polygon fill="#006934" points="44.415,27.403 49.249,25.069 44.415,29.903 		"/>
		<polygon fill="#006934" points="45.313,38.875 50.147,36.542 45.313,41.375 		"/>
		<polygon fill="#006934" points="21.665,10.667 16.832,8.333 21.665,13.167 		"/>
		<polygon fill="#006934" points="17.73,23.833 12.897,21.5 17.73,26.333 		"/>
		<polygon fill="#006934" points="16.832,35.306 11.999,32.972 16.832,37.806 		"/>
	</g>
	<g>
		<polygon fill="#E6D7A3" points="54.997,108.843 6,108.843 0,46.082 59.997,46.082 		"/>
		<polygon fill="#C1B38A" points="22.847,45.853 16.847,108.614 6,108.843 0,46.082 		"/>
	</g>
</g>
</svg>
