<?xml version="1.0" encoding="utf-8"?>
<!-- Generator: Adobe Illustrator 17.0.0, SVG Export Plug-In . SVG Version: 6.00 Build 0)  -->
<!DOCTYPE svg PUBLIC "-//W3C//DTD SVG 1.1//EN" "http://www.w3.org/Graphics/SVG/1.1/DTD/svg11.dtd">
<svg version="1.1" id="layout_x5F_1" xmlns="http://www.w3.org/2000/svg" xmlns:xlink="http://www.w3.org/1999/xlink" x="0px"
	 y="0px" width="162px" height="255.25px" viewBox="0 0 162 255.25" enable-background="new 0 0 162 255.25" xml:space="preserve">
<g>
	<g>
		<g>
			<polygon fill="#6EACB1" points="155.615,32 149.897,26.375 99.675,5.819 82.018,45.903 68.974,19.741 64.138,5.819 
				13.917,26.375 6.155,29 0.833,104.5 29.138,105.491 30.35,97.495 34.639,172.504 28.892,252.5 134.921,252.5 129.386,168.75 
				133.463,97.495 134.675,105.491 161.004,105 			"/>
			<polygon fill="#538C8D" points="69.116,32.617 81.907,51.167 82.018,45.903 			"/>
			<polygon fill="#538C8D" points="94.92,32.617 82.129,51.167 82.018,45.903 			"/>
			<g>
				<circle fill="#538C8D" cx="80.188" cy="56.48" r="1.313"/>
				<circle fill="#538C8D" cx="80.188" cy="77.795" r="1.313"/>
				<circle fill="#538C8D" cx="80.188" cy="99.11" r="1.313"/>
				<circle fill="#538C8D" cx="80.188" cy="120.425" r="1.313"/>
				<circle fill="#538C8D" cx="80.188" cy="141.74" r="1.313"/>
				<circle fill="#538C8D" cx="80.188" cy="163.055" r="1.313"/>
				<circle fill="#538C8D" cx="80.188" cy="184.37" r="1.313"/>
				<circle fill="#538C8D" cx="80.188" cy="205.685" r="1.313"/>
				<circle fill="#538C8D" cx="80.188" cy="227" r="1.313"/>
			</g>
		</g>
		<polygon fill="#67A2A6" points="119.167,251.167 119.167,145.666 130.28,61.5 139.341,105.404 134.675,105.491 133.463,97.495 
			128.784,167.368 132.921,252.5 		"/>
		<polygon fill="#538C8D" points="162,107.5 133.288,107.5 133.288,97.797 161.004,97.797 		"/>
		<polygon fill="#67A2A6" points="26,100.793 29.545,77.795 30.35,97.495 28.833,104.667 24.5,104.667 		"/>
		<polygon fill="#538C8D" points="0,111.185 29.545,111.185 29.545,101.482 1.025,101.482 		"/>
	</g>
	<g>
		<polygon fill="#31607A" points="92.863,24.531 80.684,89.904 68.392,23.921 63.477,24.837 76.34,93.882 80.073,93.186 80,93.576 
			84.915,94.492 97.779,25.447 		"/>
		<g>
			<path fill="#EFEFEF" d="M94.004,128.649c0,1.668-1.352,3.019-3.019,3.019H70.618c-1.668,0-3.019-1.352-3.019-3.019V95.327
				c0-1.668,1.352-3.019,3.019-3.019h20.366c1.668,0,3.019,1.352,3.019,3.019v33.322H94.004z"/>
			<path fill="#FF4185" d="M86.521,101.148c-1.945-0.56-4.071,0.195-5.952,1.87c-1.819-1.743-3.916-2.575-5.879-2.087
				c-4.004,0.994-5.936,5.429-4.315,11.954c1.569,6.316,9.797,11.751,9.797,11.751s8.362-5.13,10.162-11.384
				C92.192,106.791,90.485,102.289,86.521,101.148z"/>
		</g>
	</g>
	<polygon fill="#96CDCD" points="82.018,45.903 68.974,19.741 62.594,0 56.061,22 63.873,20.633 63.055,26.375 	"/>
	<polygon fill="#96CDCD" points="80.918,46.736 93.963,20.574 100.343,0.833 106.876,22.833 99.064,21.467 99.895,27.302 	"/>
</g>
</svg>
