<?xml version="1.0" encoding="utf-8"?>
<!-- Generator: Adobe Illustrator 17.0.0, SVG Export Plug-In . SVG Version: 6.00 Build 0)  -->
<!DOCTYPE svg PUBLIC "-//W3C//DTD SVG 1.1//EN" "http://www.w3.org/Graphics/SVG/1.1/DTD/svg11.dtd">
<svg version="1.1" id="图层_1" xmlns="http://www.w3.org/2000/svg" xmlns:xlink="http://www.w3.org/1999/xlink" x="0px" y="0px"
	 width="160.17px" height="237.905px" viewBox="0 0 160.17 237.905" enable-background="new 0 0 160.17 237.905"
	 xml:space="preserve">
<g id="layout_2">
	<g>
		<g>
			<path fill="#6B2E7A" d="M156.786,29.386l-3-11.854L103.639,0c-4.678,5.419-12.686,8.992-21.783,8.992S64.752,5.419,60.073,0
				L9.927,17.532l-3,11.854l-3.5,68.318H29.43l1.186-9.385l6.562,41.594l-4.232,93.735L30.7,237.905h1.786h98.742h1.786
				l-2.246-14.257l-4.232-93.735l6.562-41.594l1.186,9.385h26.002L156.786,29.386z"/>
			<polygon fill="#9258A0" points="29.267,75.319 37.178,127.408 33.274,216.375 32.945,219.335 43.267,126.319 			"/>
			<polygon fill="#9258A0" points="43.267,6.561 13.267,21.101 10.267,97.703 0.767,97.703 6.928,29.386 9.927,17.532 			"/>
			<polygon fill="#5A2966" points="138.767,95.819 130.267,58.666 128.266,85.166 121.266,130.908 130.769,219.335 124.766,131.319 
				132.267,85.166 134.285,95.819 			"/>
		</g>
		<path fill="#FFFFFF" d="M80.665,58.666c-14.612,0-26.5,11.888-26.5,26.5s11.888,26.5,26.5,26.5s26.5-11.888,26.5-26.5
			S95.277,58.666,80.665,58.666z M87.149,105.662V99.67c0-1.229-0.236-2.386-0.647-3.408c7.561-1.443,9.722-6.28,9.627-11.433
			c-0.043-2.31-0.885-4.364-2.372-6.035c0,0,0.653-6.988,0-7.507c-1.741-1.383-7.822,3.403-7.822,3.403
			c-1.382-0.277-2.874-0.426-4.463-0.426c-1.885,0-3.636,0.212-5.238,0.59l0.014-0.009c0,0-6.375-4.591-8.179-3.558s0,8.821,0,8.821
			l0.013-0.009c-0.83,1.358-1.282,2.9-1.254,4.592c0.091,5.548,2.471,10.057,9.361,11.515c-0.416,1.014-0.654,2.165-0.664,3.387
			c-1.067,0.048-2.149-0.005-2.848-0.311c-1.061-0.464-1.771-1.311-2.67-2.383c-0.656-0.783-1.401-1.67-2.397-2.512
			c-0.462-0.391-1.151-0.332-1.542,0.129c-0.39,0.462-0.332,1.152,0.129,1.542c0.853,0.721,1.504,1.497,2.133,2.247
			c0.998,1.189,1.939,2.312,3.469,2.981c0.893,0.391,2.037,0.519,3.151,0.519c0.192,0,0.381-0.006,0.57-0.013v4.1l0.194,0.175
			c-9.474-2.244-16.552-10.753-16.552-20.903c0-11.855,9.645-21.5,21.5-21.5s21.5,9.645,21.5,21.5
			C102.165,94.762,95.844,102.905,87.149,105.662z"/>
	</g>
</g>
</svg>
